HIERARCHY
ROOT Hips
{
	OFFSET 0.000003 96.368652 -0.035689
	CHANNELS 6 Xposition Yposition Zposition Xrotation Yrotation Zrotation
	JOINT Spine
	{
		OFFSET 0.000010 9.226303 1.577100
		CHANNELS 6 Xposition Yposition Zposition Xrotation Yrotation Zrotation
		JOINT Spine1
		{
			OFFSET 0.000000 16.253998 -0.165600
			CHANNELS 6 Xposition Yposition Zposition Xrotation Yrotation Zrotation
			JOINT Spine2
			{
				OFFSET -0.000000 13.639587 -1.292299
				CHANNELS 6 Xposition Yposition Zposition Xrotation Yrotation Zrotation
				JOINT Neck
				{
					OFFSET 0.000000 13.877411 -4.354199
					CHANNELS 6 Xposition Yposition Zposition Xrotation Yrotation Zrotation
					JOINT Neck1
					{
						OFFSET 0.000000 4.339996 0.926899
						CHANNELS 6 Xposition Yposition Zposition Xrotation Yrotation Zrotation
						JOINT Head
						{
							OFFSET 0.000000 4.026611 0.858500
							CHANNELS 6 Xposition Yposition Zposition Xrotation Yrotation Zrotation
							JOINT HeadTop_End
							{
								OFFSET 0.000000 21.748810 0.000000
								CHANNELS 6 Xposition Yposition Zposition Xrotation Yrotation Zrotation
								End Site
								{
									OFFSET 0.000000 11.825378 0.000000
								}
							}
							JOINT L_Eye
							{
								OFFSET 3.005700 7.261795 7.955601
								CHANNELS 6 Xposition Yposition Zposition Xrotation Yrotation Zrotation
								End Site
								{
									OFFSET 0.000000 11.825378 0.000000
								}
							}
							JOINT R_Eye
							{
								OFFSET -3.005700 7.261795 7.955601
								CHANNELS 6 Xposition Yposition Zposition Xrotation Yrotation Zrotation
								End Site
								{
									OFFSET 0.000000 11.825378 0.000000
								}
							}
							JOINT Jaw
							{
								OFFSET 0.000000 2.030289 2.456200
								CHANNELS 6 Xposition Yposition Zposition Xrotation Yrotation Zrotation
								End Site
								{
									OFFSET 0.000000 11.825378 0.000000
								}
							}
						}
					}
				}
				JOINT L_Shoulder
				{
					OFFSET 6.144200 10.187012 -3.793198
					CHANNELS 6 Xposition Yposition Zposition Xrotation Yrotation Zrotation
					JOINT L_Arm
					{
						OFFSET 12.319103 -1.112991 -1.793500
						CHANNELS 3 Xrotation Yrotation Zrotation
						JOINT L_ForeArm
						{
							OFFSET 27.687006 -0.000015 -0.000000
							CHANNELS 3 Xrotation Yrotation Zrotation
							JOINT L_Hand
							{
								OFFSET 27.873787 0.000031 -0.000000
								CHANNELS 3 Xrotation Yrotation Zrotation
								JOINT L_HandThumb1
								{
									OFFSET 2.421021 -1.395554 2.392360
									CHANNELS 6 Xposition Yposition Zposition Xrotation Yrotation Zrotation
									JOINT L_HandThumb2
									{
										OFFSET 3.496521 -2.018692 2.018717
										CHANNELS 6 Xposition Yposition Zposition Xrotation Yrotation Zrotation
										JOINT L_HandThumb3
										{
											OFFSET 4.011398 -2.315994 2.315975
											CHANNELS 6 Xposition Yposition Zposition Xrotation Yrotation Zrotation
											JOINT L_HandThumb4
											{
												OFFSET 2.095787 -1.210007 1.209984
												CHANNELS 6 Xposition Yposition Zposition Xrotation Yrotation Zrotation
												End Site
												{
													OFFSET 1.877617 -1.197205 1.536803
												}
											}
										}
									}
								}
								JOINT L_HandIndex1
								{
									OFFSET 10.514771 -0.231369 2.264849
									CHANNELS 6 Xposition Yposition Zposition Xrotation Yrotation Zrotation
									JOINT L_HandIndex2
									{
										OFFSET 5.549301 0.000000 0.000000
										CHANNELS 3 Xrotation Yrotation Zrotation
										JOINT L_HandIndex3
										{
											OFFSET 3.391098 0.000000 0.000001
											CHANNELS 3 Xrotation Yrotation Zrotation
											JOINT L_HandIndex4
											{
												OFFSET 2.334351 0.000000 0.000011
												CHANNELS 6 Xposition Yposition Zposition Xrotation Yrotation Zrotation
												End Site
												{
													OFFSET 2.334351 0.000000 0.000101
												}
											}
										}
									}
								}
								JOINT L_HandMiddle1
								{
									OFFSET 10.490761 -0.000015 0.000002
									CHANNELS 6 Xposition Yposition Zposition Xrotation Yrotation Zrotation
									JOINT L_HandMiddle2
									{
										OFFSET 5.792099 0.000000 0.000000
										CHANNELS 3 Xrotation Yrotation Zrotation
										JOINT L_HandMiddle3
										{
											OFFSET 3.713196 0.000000 0.000000
											CHANNELS 3 Xrotation Yrotation Zrotation
											JOINT L_HandMiddle4
											{
												OFFSET 2.752045 -0.000031 0.000022
												CHANNELS 6 Xposition Yposition Zposition Xrotation Yrotation Zrotation
												End Site
												{
													OFFSET 2.752045 0.000031 -0.003599
												}
											}
										}
									}
								}
								JOINT L_HandRing1
								{
									OFFSET 10.240753 -0.046051 -2.314147
									CHANNELS 6 Xposition Yposition Zposition Xrotation Yrotation Zrotation
									JOINT L_HandRing2
									{
										OFFSET 5.445206 -0.000015 0.000676
										CHANNELS 3 Xrotation Yrotation Zrotation
										JOINT L_HandRing3
										{
											OFFSET 3.713196 0.000015 -0.000674
											CHANNELS 3 Xrotation Yrotation Zrotation
											JOINT L_HandRing4
											{
												OFFSET 2.280716 0.000000 -0.000046
												CHANNELS 3 Xrotation Yrotation Zrotation
												End Site
												{
													OFFSET 2.280716 -0.000061 0.003501
												}
											}
										}
									}
								}
								JOINT L_HandPinky1
								{
									OFFSET 9.820259 -0.209747 -4.418469
									CHANNELS 6 Xposition Yposition Zposition Xrotation Yrotation Zrotation
									JOINT L_HandPinky2
									{
										OFFSET 3.676300 0.000000 0.000000
										CHANNELS 3 Xrotation Yrotation Zrotation
										JOINT L_HandPinky3
										{
											OFFSET 2.811295 0.000000 0.000001
											CHANNELS 3 Xrotation Yrotation Zrotation
											JOINT L_HandPinky4
											{
												OFFSET 1.659546 0.000000 0.000000
												CHANNELS 3 Xrotation Yrotation Zrotation
												End Site
												{
													OFFSET 1.659546 0.000015 -0.001891
												}
											}
										}
									}
								}
							}
						}
					}
				}
				JOINT R_Shoulder
				{
					OFFSET -6.140200 10.187012 -3.793198
					CHANNELS 6 Xposition Yposition Zposition Xrotation Yrotation Zrotation
					JOINT R_Arm
					{
						OFFSET -12.323095 -1.113007 -1.793499
						CHANNELS 3 Xrotation Yrotation Zrotation
						JOINT R_ForeArm
						{
							OFFSET -27.687002 0.000015 -0.000002
							CHANNELS 3 Xrotation Yrotation Zrotation
							JOINT R_Hand
							{
								OFFSET -27.873795 -0.000015 0.000000
								CHANNELS 3 Xrotation Yrotation Zrotation
								JOINT R_HandPinky1
								{
									OFFSET -9.791023 -0.212921 -4.378341
									CHANNELS 6 Xposition Yposition Zposition Xrotation Yrotation Zrotation
									JOINT R_HandPinky2
									{
										OFFSET -3.652802 0.000000 0.000000
										CHANNELS 3 Xrotation Yrotation Zrotation
										JOINT R_HandPinky3
										{
											OFFSET -2.781998 0.000000 0.000000
											CHANNELS 3 Xrotation Yrotation Zrotation
											JOINT R_HandPinky4
											{
												OFFSET -1.612122 0.000198 0.000004
												CHANNELS 3 Xrotation Yrotation Zrotation
												End Site
												{
													OFFSET -1.612106 0.000320 -0.007100
												}
											}
										}
									}
								}
								JOINT R_HandRing1
								{
									OFFSET -10.391914 0.105164 -2.349891
									CHANNELS 6 Xposition Yposition Zposition Xrotation Yrotation Zrotation
									JOINT R_HandRing2
									{
										OFFSET -5.401306 0.000000 0.000000
										CHANNELS 3 Xrotation Yrotation Zrotation
										JOINT R_HandRing3
										{
											OFFSET -3.391602 0.000000 0.000000
											CHANNELS 3 Xrotation Yrotation Zrotation
											JOINT R_HandRing4
											{
												OFFSET -2.353172 0.000305 -0.000032
												CHANNELS 3 Xrotation Yrotation Zrotation
												End Site
												{
													OFFSET -2.353180 0.000275 0.001400
												}
											}
										}
									}
								}
								JOINT R_HandMiddle1
								{
									OFFSET -10.779236 0.000000 0.000001
									CHANNELS 6 Xposition Yposition Zposition Xrotation Yrotation Zrotation
									JOINT R_HandMiddle2
									{
										OFFSET -5.616806 0.000000 0.000000
										CHANNELS 3 Xrotation Yrotation Zrotation
										JOINT R_HandMiddle3
										{
											OFFSET -3.736397 0.000000 0.000000
											CHANNELS 3 Xrotation Yrotation Zrotation
											JOINT R_HandMiddle4
											{
												OFFSET -2.691521 0.000336 -0.000028
												CHANNELS 3 Xrotation Yrotation Zrotation
												End Site
												{
													OFFSET -2.691513 0.000214 0.009200
												}
											}
										}
									}
								}
								JOINT R_HandIndex1
								{
									OFFSET -10.577324 -0.175369 2.287349
									CHANNELS 6 Xposition Yposition Zposition Xrotation Yrotation Zrotation
									JOINT R_HandIndex2
									{
										OFFSET -5.376801 0.000000 0.000001
										CHANNELS 3 Xrotation Yrotation Zrotation
										JOINT R_HandIndex3
										{
											OFFSET -3.385498 0.000000 0.000001
											CHANNELS 3 Xrotation Yrotation Zrotation
											JOINT R_HandIndex4
											{
												OFFSET -2.363556 0.000305 0.000042
												CHANNELS 3 Xrotation Yrotation Zrotation
												End Site
												{
													OFFSET -2.363548 0.000381 -0.006501
												}
											}
										}
									}
								}
								JOINT R_HandThumb1
								{
									OFFSET -2.570442 -1.245102 2.319054
									CHANNELS 6 Xposition Yposition Zposition Xrotation Yrotation Zrotation
									JOINT R_HandThumb2
									{
										OFFSET -3.518791 -2.031555 2.031563
										CHANNELS 6 Xposition Yposition Zposition Xrotation Yrotation Zrotation
										JOINT R_HandThumb3
										{
											OFFSET -3.945267 -2.277756 2.277756
											CHANNELS 6 Xposition Yposition Zposition Xrotation Yrotation Zrotation
											JOINT R_HandThumb4
											{
												OFFSET -2.055496 -1.186386 1.186664
												CHANNELS 3 Xrotation Yrotation Zrotation
												End Site
												{
													OFFSET -1.840202 -1.174805 1.508071
												}
											}
										}
									}
								}
							}
						}
					}
				}
			}
		}
	}
	JOINT L_UpLeg
	{
		OFFSET 9.633796 -3.273308 -0.000000
		CHANNELS 6 Xposition Yposition Zposition Xrotation Yrotation Zrotation
		JOINT L_Leg
		{
			OFFSET -0.006490 -41.762173 -0.553830
			CHANNELS 3 Xrotation Yrotation Zrotation
			JOINT L_Foot
			{
				OFFSET 0.006493 -39.146984 -2.021915
				CHANNELS 3 Xrotation Yrotation Zrotation
				JOINT L_ToeBase
				{
					OFFSET -0.183300 -12.185708 8.282301
					CHANNELS 6 Xposition Yposition Zposition Xrotation Yrotation Zrotation
					JOINT L_Toe_End
					{
						OFFSET -0.094684 -0.116787 6.663326
						CHANNELS 3 Xrotation Yrotation Zrotation
						End Site
						{
							OFFSET -0.094684 -0.116787 6.663328
						}
					}
				}
			}
		}
	}
	JOINT R_UpLeg
	{
		OFFSET -9.633803 -3.273293 0.000000
		CHANNELS 6 Xposition Yposition Zposition Xrotation Yrotation Zrotation
		JOINT R_Leg
		{
			OFFSET -0.006491 -41.762146 -0.555884
			CHANNELS 3 Xrotation Yrotation Zrotation
			JOINT R_Foot
			{
				OFFSET 0.006493 -39.147087 -2.019920
				CHANNELS 3 Xrotation Yrotation Zrotation
				JOINT R_ToeBase
				{
					OFFSET -0.183299 -12.185700 8.282300
					CHANNELS 6 Xposition Yposition Zposition Xrotation Yrotation Zrotation
					JOINT R_Toe_End
					{
						OFFSET 0.094687 -0.116863 6.675869
						CHANNELS 3 Xrotation Yrotation Zrotation
						End Site
						{
							OFFSET 0.094687 -0.116863 6.675869
						}
					}
				}
			}
		}
	}
}
MOTION
Frames: 4
Frame Time: 0.033333
-0.045874 88.817505 0.075545 -16.573253 -47.791995 -8.601136 0.000010 9.226315 1.577100 16.096220 -2.177647 -5.117908 0.000000 16.253986 -0.165597 21.106429 6.901279 6.343906 0.000004 13.639601 -1.292292 16.972004 11.361524 9.575082 -0.000007 13.877401 -4.354195 -5.888419 3.738121 0.155099 0.000003 4.339996 0.926910 0.000001 0.000001 0.000000 0.000004 4.026617 0.858509 -3.378951 29.206237 -13.050049 0.000006 21.748825 -0.000001 -0.000001 -0.000000 -0.000002 3.005704 7.261795 7.955602 -0.000001 -0.000000 -0.000002 -3.005693 7.261795 7.955601 -0.000001 -0.000000 -0.000002 0.000009 2.030289 2.456202 -0.000001 -0.000000 -0.000002 6.144197 10.187025 -3.793214 8.971368 -25.668671 -1.627474 -60.009919 -2.420621 -48.973259 -87.132949 15.218669 -85.582680 -46.476715 -4.534122 -7.677203 2.421017 -1.395563 2.392364 0.699349 9.503617 -2.418236 3.496511 -2.018691 2.018721 5.975148 12.647556 1.348389 4.011428 -2.315978 2.315975 -23.873526 -17.664341 1.604734 2.095786 -1.210028 1.209986 0.000000 0.000003 0.000004 10.514759 -0.231360 2.264850 9.479752 -1.289628 -20.785563 0.709553 2.796660 -28.467079 0.714087 2.804976 -28.559668 2.334345 0.000016 0.000004 0.000002 -0.000000 -0.000001 10.490752 -0.000022 0.000007 10.058202 -1.800429 -20.644713 1.774388 4.200812 -45.782017 1.632353 4.058113 -43.809417 2.752054 -0.000048 0.000020 -0.000001 0.000001 0.000002 10.240751 -0.046048 -2.314146 1.256440 -0.066861 -17.945579 3.744582 5.453180 -68.964270 5.298054 9.647989 -33.747497 0.000001 -0.000001 0.000000 9.820253 -0.209735 -4.418466 -7.938267 1.609124 -6.495659 2.210779 4.584023 -51.475167 0.883893 3.096284 -31.858174 0.000000 0.000001 -0.000001 -6.140203 10.187008 -3.793205 -0.080119 -6.712973 -0.143264 -7.796585 61.551950 23.973692 49.071194 121.609346 -62.857732 -4.356996 0.381872 -4.804301 -9.791036 -0.212920 -4.378333 -17.635762 -10.496895 3.325296 4.994418 -4.645756 94.147942 3.648025 -4.547272 77.470690 -0.000000 0.000000 -0.000000 -10.391918 0.105179 -2.349881 -12.155586 -12.624028 9.228268 6.567821 -4.249086 114.232298 3.754913 -4.569699 78.826940 0.000002 0.000000 -0.000001 -10.779243 0.000010 0.000005 3.764091 -12.080504 1.143650 5.715142 -4.536547 103.133459 3.160388 -4.411102 71.242063 0.000000 -0.000000 -0.000000 -10.577334 -0.175358 2.287353 0.357795 -5.832765 5.175823 0.094371 -0.933679 11.539816 0.778273 -2.579710 33.567252 -0.000000 0.000001 0.000002 -2.570442 -1.245128 2.319055 13.942809 -4.273704 -5.299907 -3.518821 -2.031559 2.031544 7.113033 -20.767542 -2.619581 -3.945248 -2.277752 2.277749 -3.460600 -24.899386 -18.653812 -0.000003 0.000003 0.000004 9.633795 -3.273313 -0.000001 -32.148597 -0.733681 -9.064646 62.786842 2.589023 6.137250 -0.943690 -2.239264 -1.460443 -0.183299 -12.185708 8.282301 1.370418 -0.452311 3.767607 0.000001 0.000000 0.000001 -9.633808 -3.273295 0.000002 -10.665328 -13.833880 -9.634725 49.061215 -2.072240 3.074471 -28.894528 2.994367 -1.387161 -0.183300 -12.185700 8.282301 -0.003735 1.070210 -0.000772 -0.000000 0.000002 -0.000000 
-1.451656 87.182861 0.235762 -18.660249 -50.919357 -11.604926 0.000012 9.226306 1.577102 16.424271 -0.652905 -4.528986 0.000001 16.253988 -0.165597 21.099269 7.351400 5.905007 0.000004 13.639592 -1.292296 17.119741 11.660190 9.022284 0.000002 13.877407 -4.354197 -5.903487 3.958319 0.213751 0.000004 4.340012 0.926897 0.000001 0.000001 -0.000001 0.000006 4.026647 0.858506 -3.440164 29.654656 -12.966621 -0.000000 21.748810 -0.000001 0.000000 -0.000000 -0.000001 3.005706 7.261810 7.955602 0.000000 -0.000000 -0.000001 -3.005694 7.261810 7.955601 0.000000 -0.000000 -0.000001 0.000006 2.030289 2.456201 0.000000 -0.000000 -0.000001 6.144201 10.187023 -3.793190 10.084401 -23.805089 -0.951720 -60.367165 -3.086785 -50.502941 -87.031363 11.670713 -85.415149 -49.965347 -4.962126 -8.110072 2.421019 -1.395554 2.392361 0.699352 9.503622 -2.418234 3.496520 -2.018679 2.018722 5.975153 12.647557 1.348389 4.011419 -2.315980 2.315973 -23.873528 -17.664338 1.604732 2.095770 -1.210011 1.209976 -0.000003 0.000003 0.000004 10.514763 -0.231390 2.264856 9.479751 -1.289627 -20.785565 0.709556 2.796660 -28.467071 0.714088 2.804973 -28.559668 2.334343 0.000014 0.000015 -0.000002 -0.000000 0.000000 10.490764 -0.000037 0.000005 10.058200 -1.800429 -20.644715 1.774387 4.200810 -45.782014 1.632357 4.058112 -43.809421 2.752041 -0.000044 0.000024 0.000002 -0.000000 -0.000002 10.240759 -0.046042 -2.314144 1.256441 -0.066865 -17.945586 3.744583 5.453176 -68.964263 5.298054 9.647989 -33.747493 0.000003 0.000001 0.000001 9.820263 -0.209752 -4.418465 -7.938270 1.609122 -6.495661 2.210779 4.584024 -51.475164 0.883893 3.096283 -31.858171 -0.000001 0.000003 0.000000 -6.140197 10.187015 -3.793197 1.692938 -5.391809 -0.288655 -11.157298 60.292935 26.605320 52.751197 126.190026 -65.689686 0.866706 -0.226606 -3.651764 -9.791021 -0.212919 -4.378341 -17.635762 -10.496894 3.325296 4.994419 -4.645755 94.147942 3.648025 -4.547272 77.470690 -0.000001 -0.000000 -0.000000 -10.391913 0.105179 -2.349903 -12.155584 -12.624028 9.228269 6.567819 -4.249087 114.232291 3.754911 -4.569699 78.826940 -0.000001 -0.000000 -0.000002 -10.779236 -0.000004 -0.000013 3.764093 -12.080505 1.143651 5.715142 -4.536547 103.133459 3.160389 -4.411102 71.242063 0.000000 0.000001 -0.000000 -10.577325 -0.175374 2.287345 0.357796 -5.832767 5.175822 0.094371 -0.933679 11.539819 0.778275 -2.579712 33.567248 0.000000 -0.000000 -0.000002 -2.570429 -1.245126 2.319043 13.942809 -4.273705 -5.299909 -3.518808 -2.031550 2.031560 7.113037 -20.767537 -2.619577 -3.945263 -2.277744 2.277762 -3.460598 -24.899391 -18.653808 -0.000000 0.000002 0.000002 9.633801 -3.273313 -0.000005 -37.637761 1.118866 -12.216280 60.129413 6.333019 5.839065 0.505750 -3.661693 -0.963690 -0.183299 -12.185706 8.282298 -2.757971 7.319468 1.773525 -0.000000 -0.000005 0.000001 -9.633803 -3.273287 -0.000001 -5.143829 -14.212960 -5.414348 50.497928 -1.567970 3.341119 -34.787598 5.262057 -3.637244 -0.183299 -12.185699 8.282301 -0.003735 1.070198 -0.000770 -0.000000 0.000002 -0.000000 
-2.913528 85.328545 0.487710 -21.329270 -54.095330 -15.215640 0.000010 9.226311 1.577103 16.828135 0.999526 -3.963143 -0.000000 16.254002 -0.165601 21.045167 7.756166 5.447857 0.000000 13.639589 -1.292303 17.222283 11.907631 8.461820 -0.000000 13.877402 -4.354201 -5.922322 4.236132 0.287131 -0.000003 4.339981 0.926901 -0.000002 0.000001 0.000003 0.000001 4.026613 0.858505 -3.525130 30.219554 -12.857956 0.000002 21.748810 -0.000001 0.000001 -0.000000 0.000001 3.005707 7.261810 7.955599 0.000001 -0.000000 0.000001 -3.005694 7.261810 7.955597 0.000001 -0.000000 0.000001 0.000008 2.030289 2.456199 0.000001 -0.000000 0.000001 6.144201 10.187012 -3.793212 11.265390 -21.666185 -0.238640 -60.740025 -3.823367 -51.862241 -86.918952 11.715216 -85.936962 -50.145753 -6.118436 -8.361400 2.421013 -1.395563 2.392359 0.699348 9.503616 -2.418234 3.496512 -2.018683 2.018724 5.975149 12.647554 1.348386 4.011418 -2.315962 2.315969 -23.873528 -17.664341 1.604729 2.095783 -1.209985 1.209992 0.000000 0.000003 0.000002 10.514771 -0.231384 2.264846 9.479752 -1.289626 -20.785560 0.709554 2.796658 -28.467076 0.714089 2.804975 -28.559668 2.334337 0.000016 0.000013 -0.000000 0.000000 -0.000001 10.490756 -0.000024 0.000000 10.058201 -1.800427 -20.644713 1.774386 4.200809 -45.782014 1.632354 4.058110 -43.809421 2.752066 -0.000040 0.000029 -0.000001 -0.000000 0.000000 10.240755 -0.046045 -2.314145 1.256445 -0.066861 -17.945584 3.744582 5.453174 -68.964270 5.298051 9.647990 -33.747497 0.000004 0.000001 0.000000 9.820251 -0.209762 -4.418469 -7.938270 1.609123 -6.495659 2.210780 4.584020 -51.475167 0.883894 3.096286 -31.858171 -0.000002 0.000001 -0.000002 -6.140197 10.187017 -3.793209 3.791495 -3.830734 -0.583949 -14.581687 58.696884 28.947281 49.778313 124.571708 -62.801643 -1.330168 -1.402398 -2.733710 -9.791023 -0.212914 -4.378342 -17.635765 -10.496893 3.325297 4.994418 -4.645756 94.147942 3.648025 -4.547270 77.470690 -0.000000 0.000000 -0.000001 -10.391921 0.105162 -2.349886 -12.155586 -12.624024 9.228269 6.567820 -4.249086 114.232298 3.754914 -4.569700 78.826940 -0.000001 0.000001 -0.000002 -10.779243 0.000009 0.000000 3.764093 -12.080504 1.143650 5.715143 -4.536548 103.133459 3.160387 -4.411101 71.242070 0.000001 0.000000 -0.000000 -10.577334 -0.175374 2.287351 0.357795 -5.832763 5.175823 0.094372 -0.933681 11.539815 0.778273 -2.579710 33.567248 -0.000001 0.000001 -0.000000 -2.570439 -1.245129 2.319050 13.942809 -4.273707 -5.299904 -3.518798 -2.031549 2.031562 7.113032 -20.767535 -2.619578 -3.945271 -2.277758 2.277752 -3.460599 -24.899388 -18.653805 -0.000003 0.000000 0.000001 9.633795 -3.273304 0.000001 -40.755220 1.637313 -13.546545 54.863682 7.549860 4.056830 2.574351 -3.584675 1.080873 -0.183302 -12.185708 8.282299 -0.789566 0.528946 -1.684536 0.000000 -0.000002 0.000001 -9.633806 -3.273275 0.000001 1.683600 -14.337631 -1.495019 50.169478 -0.726644 3.489401 -39.863255 7.799437 -5.593286 -0.183299 -12.185701 8.282300 -0.003744 1.070207 -0.000774 -0.000000 0.000000 -0.000000 
-4.295815 83.548325 0.817748 -24.603275 -57.157455 -19.419131 0.000012 9.226325 1.577101 17.290976 2.685095 -3.466126 0.000001 16.253998 -0.165598 20.950845 8.148464 5.021694 0.000005 13.639614 -1.292306 17.286977 12.153100 7.920812 -0.000004 13.877404 -4.354198 -5.943241 4.532917 0.367141 0.000008 4.339996 0.926909 -0.000003 0.000002 0.000000 -0.000000 4.026628 0.858508 -3.620627 30.824364 -12.740867 -0.000005 21.748795 -0.000002 -0.000001 -0.000000 0.000002 3.005693 7.261780 7.955602 -0.000001 -0.000000 0.000002 -3.005708 7.261780 7.955602 -0.000001 -0.000000 0.000002 -0.000004 2.030273 2.456198 -0.000001 -0.000000 0.000002 6.144201 10.186996 -3.793208 12.339491 -19.531496 0.365724 -61.016641 -4.498733 -52.963472 -86.744618 13.720384 -86.894322 -48.552236 -7.614334 -8.442787 2.421010 -1.395568 2.392354 0.699346 9.503617 -2.418233 3.496518 -2.018657 2.018715 5.975149 12.647552 1.348390 4.011414 -2.315993 2.315973 -23.873528 -17.664341 1.604727 2.095790 -1.210017 1.209972 -0.000002 0.000002 0.000002 10.514778 -0.231386 2.264851 9.479751 -1.289629 -20.785563 0.709554 2.796658 -28.467076 0.714086 2.804977 -28.559669 2.334343 0.000016 0.000010 0.000003 0.000000 -0.000000 10.490749 -0.000051 -0.000003 10.058201 -1.800435 -20.644715 1.774388 4.200814 -45.782014 1.632353 4.058112 -43.809417 2.752063 -0.000042 0.000024 -0.000004 -0.000001 -0.000001 10.240747 -0.046073 -2.314150 1.256441 -0.066862 -17.945583 3.744583 5.453177 -68.964270 5.298059 9.647989 -33.747497 0.000002 -0.000000 -0.000001 9.820257 -0.209766 -4.418466 -7.938269 1.609125 -6.495661 2.210778 4.584024 -51.475167 0.883893 3.096284 -31.858171 -0.000003 0.000001 -0.000002 -6.140198 10.187016 -3.793204 5.988186 -2.245943 -1.027395 -18.122312 56.920208 31.254584 48.602742 125.716052 -61.169207 -0.744710 -2.883760 -1.943588 -9.791022 -0.212903 -4.378337 -17.635764 -10.496893 3.325297 4.994417 -4.645755 94.147942 3.648024 -4.547269 77.470690 0.000001 0.000000 -0.000000 -10.391908 0.105181 -2.349892 -12.155588 -12.624024 9.228269 6.567819 -4.249087 114.232298 3.754914 -4.569700 78.826947 -0.000000 -0.000000 0.000000 -10.779236 -0.000005 0.000005 3.764092 -12.080503 1.143651 5.715142 -4.536547 103.133459 3.160388 -4.411101 71.242070 -0.000001 -0.000001 -0.000000 -10.577324 -0.175358 2.287352 0.357794 -5.832765 5.175822 0.094371 -0.933678 11.539820 0.778274 -2.579711 33.567248 0.000001 0.000000 -0.000003 -2.570437 -1.245130 2.319051 13.942808 -4.273704 -5.299909 -3.518801 -2.031564 2.031555 7.113030 -20.767537 -2.619580 -3.945267 -2.277746 2.277750 -3.460599 -24.899391 -18.653810 -0.000002 -0.000002 -0.000001 9.633797 -3.273303 -0.000004 -41.229126 1.619280 -12.773203 47.326558 8.697189 0.798218 4.690294 -7.261352 4.149642 -0.183302 -12.185709 8.282295 0.233935 -1.085690 -0.689540 0.000000 -0.000000 -0.000001 -9.633803 -3.273285 0.000002 8.990856 -13.031841 2.581489 48.522647 1.400515 3.316367 -41.933707 8.099668 -9.416407 -0.183300 -12.185702 8.282300 -2.293534 1.864551 0.427450 -0.000000 0.000001 -0.000000 
